<svg height="512pt" viewBox="-9 0 512 512" width="512pt" xmlns="http://www.w3.org/2000/svg"><path d="m409.855469 8.828125h-334.195313l-66.832031 61.792969v30.894531c0 17.066406 14.960937 30.898437 33.421875 30.898437 18.457031 0 33.421875-13.832031 33.421875-30.898437 0 17.066406 14.960937 30.898437 33.417969 30.898437 18.460937 0 33.421875-13.832031 33.421875-30.898437 0 17.066406 14.964843 30.898437 33.421875 30.898437 18.457031 0 33.421875-13.832031 33.421875-30.898437 0 17.066406 14.960937 30.898437 33.421875 30.898437 18.457031 0 33.421875-13.832031 33.421875-30.898437 0 17.066406 14.960937 30.898437 33.417969 30.898437 18.460937 0 33.421874-13.832031 33.421874-30.898437 0 17.066406 14.964844 30.898437 33.421876 30.898437 18.457031 0 33.421874-13.832031 33.421874-30.898437 0 17.066406 14.960938 30.898437 33.421876 30.898437 18.421874 0 33.386718-13.832031 33.386718-30.898437v-30.894531zm0 0" fill="#b02721"/><path d="m291.308594 406.070312v-8.828124h-88.273438v8.828124c0 39.035157-13.929687 70.621094-52.964844 70.621094v8.824219h194.207032v-8.824219c-39.035156 0-52.96875-31.585937-52.96875-70.621094zm0 0" fill="#e7eced"/><path d="m459.035156 114.757812c-19.5 0-35.3125-15.808593-35.3125-35.308593 0 19.5-15.808594 35.308593-35.308594 35.308593s-35.3125-15.808593-35.3125-35.308593c0 19.5-15.808593 35.308593-35.308593 35.308593s-35.308594-15.808593-35.308594-35.308593c0 19.5-15.8125 35.308593-35.3125 35.308593s-35.308594-15.808593-35.308594-35.308593c0 19.5-15.8125 35.308593-35.3125 35.308593s-35.308593-15.808593-35.308593-35.308593c0 19.5-15.8125 35.308593-35.3125 35.308593s-35.308594-15.808593-35.308594-35.308593c0 19.5-15.8125 35.308593-35.3125 35.308593-3.0625 0-5.992188-.511718-8.824219-1.242187v248.414063h441.378906v-248.414063c-2.835937.730469-5.765625 1.242187-8.828125 1.242187zm0 0" fill="#e7eced"/><path d="m441.378906 406.070312h-388.414062c-14.625 0-26.492188-11.867187-26.492188-26.492187v-44.128906h441.398438v44.128906c0 14.625-11.863282 26.492187-26.492188 26.492187zm0 0" fill="#afb6bb"/><path d="m361.929688 512h-229.515626c-9.753906 0-17.65625-7.902344-17.65625-17.65625s7.902344-17.652344 17.65625-17.652344h229.515626c9.753906 0 17.65625 7.898438 17.65625 17.652344s-7.902344 17.65625-17.65625 17.65625zm0 0" fill="#afb6bb"/><path d="m35.308594 141.242188c-19.5 0-35.308594-15.8125-35.308594-35.3125v-35.308594h70.621094v35.308594c0 19.5-15.8125 35.3125-35.3125 35.3125zm0 0" fill="#dd352e"/><path d="m105.929688 141.242188c-19.5 0-35.308594-15.8125-35.308594-35.3125v-35.308594h70.621094v35.308594c0 19.5-15.8125 35.3125-35.3125 35.3125zm0 0" fill="#b02721"/><path d="m176.550781 141.242188c-19.5 0-35.308593-15.8125-35.308593-35.3125v-35.308594h70.621093v35.308594c0 19.5-15.8125 35.3125-35.3125 35.3125zm0 0" fill="#dd352e"/><path d="m70.621094 70.621094h-70.621094l70.621094-70.621094h47.078125zm0 0" fill="#b02721"/><path d="m141.242188 70.621094h-70.621094l47.078125-70.621094h47.085937zm0 0" fill="#dd352e"/><path d="m211.863281 70.621094h-70.621093l23.542968-70.621094h47.078125zm0 0" fill="#b02721"/><path d="m247.171875 141.242188c19.5 0 35.3125-15.8125 35.3125-35.3125v-35.308594h-70.621094v35.308594c0 19.5 15.808594 35.3125 35.308594 35.3125zm0 0" fill="#b02721"/><path d="m211.863281 0h70.621094v70.621094h-70.621094zm0 0" fill="#dd352e"/><path d="m423.722656 105.929688c0 19.5-15.808594 35.3125-35.308594 35.3125s-35.3125-15.8125-35.3125-35.3125c0 19.5-15.808593 35.3125-35.308593 35.3125s-35.308594-15.8125-35.308594-35.3125c0 19.5-15.8125 35.3125-35.3125 35.3125s-35.308594-15.8125-35.308594-35.3125c0 19.5-15.8125 35.3125-35.3125 35.3125s-35.308593-15.8125-35.308593-35.3125c0 19.5-15.8125 35.3125-35.3125 35.3125s-35.308594-15.8125-35.308594-35.3125c0 8.898437-3.398438 16.925781-8.828125 23.128906v206.390625h370.757812v-206.390625c-5.429687-6.203125-8.828125-14.230469-8.828125-23.128906zm0 0" fill="#ebba16"/><path d="m273.65625 167.722656c0 19.5-6.984375 35.3125-26.484375 35.3125s-26.480469-15.8125-26.480469-35.3125c-44.140625 0-52.96875 37.394532-52.96875 61.792969h26.484375v70.621094h105.929688v-70.621094h26.484375c0-24.398437-8.828125-61.792969-52.964844-61.792969zm0 0" fill="#fff"/><path d="m194.207031 264.828125h105.929688v35.308594h-105.929688zm0 0" fill="#dd352e"/><path d="m97.101562 176.550781h35.3125v35.3125h-35.3125zm0 0" fill="#366db6"/><path d="m97.101562 264.828125h35.3125v35.308594h-35.3125zm0 0" fill="#dc691d"/><path d="m361.929688 176.550781h35.3125v35.3125h-35.3125zm0 0" fill="#61b872"/><path d="m361.929688 264.828125h35.3125v35.308594h-35.3125zm0 0" fill="#75348b"/><path d="m459.035156 141.242188c19.5 0 35.308594-15.8125 35.308594-35.3125v-35.308594h-70.621094v35.308594c0 19.5 15.8125 35.3125 35.3125 35.3125zm0 0" fill="#dd352e"/><path d="m388.414062 141.242188c19.5 0 35.308594-15.8125 35.308594-35.3125v-35.308594h-70.621094v35.308594c0 19.5 15.8125 35.3125 35.3125 35.3125zm0 0" fill="#b02721"/><path d="m317.792969 141.242188c19.5 0 35.308593-15.8125 35.308593-35.3125v-35.308594h-70.617187v35.308594c0 19.5 15.808594 35.3125 35.308594 35.3125zm0 0" fill="#dd352e"/><path d="m423.722656 70.621094h70.621094l-70.621094-70.621094h-47.074218zm0 0" fill="#b02721"/><path d="m353.101562 70.621094h70.621094l-47.074218-70.621094h-47.089844zm0 0" fill="#dd352e"/><path d="m282.484375 70.621094h70.617187l-23.542968-70.621094h-47.074219zm0 0" fill="#b02721"/><path d="m273.65625 379.585938h-52.964844c-4.875 0-8.828125-3.953126-8.828125-8.828126 0-4.871093 3.953125-8.828124 8.828125-8.828124h52.964844c4.871094 0 8.828125 3.957031 8.828125 8.828124 0 4.875-3.957031 8.828126-8.828125 8.828126zm0 0" fill="#fff"/></svg>